PathFileType	4	(X/Y/Z)	Trial.trc
DataRate	CameraRate	NumFrames	NumMarkers	Units	OrigDataRate	OrigDataStartFrame	OrigNumFrames
9	9	10	2	mm	9	1	10
Frame#	Time	Marker1			Marker2		
		X1	Y1	Z1	X2	Y2	Z2
1	0	0.463496088884909	0.628487147082277	-1.03874804356047	1.04205493222107	0.506910866986586	-0.639529548549857
2	0.111111111111111	-0.0469298332527302	0.141574176774176	2.08326721316641	-0.907458006871231	0.847829871458366	0.447654459830662
3	0.222222222222222	0.315686655929191	0.559694489623162	-0.357541092993362	-0.278540009405179	-0.0887566508381087	1.74970870016685
4	0.333333333333333	0.64194543938905	-1.88463320853214	-0.771197147474876	0.882078803286879	-1.17555902149259	0.342388595743753
5	0.444444444444444	0.70535784412447	0.384620759261471	-0.344674589864778	0.574255277047403	0.894468551441981	-1.5928730689523
6	0.555555555555556	0.932654956628809	1.75359868824066	0.0840539966646543	-0.0425503803630298	-1.25734906746346	-2.05449695655526
7	0.666666666666667	0.712163220846105	-0.6693107165256	0.557529803653045	0.489460178358923	0.652331403814928	-0.085985324355645
8	0.777777777777778	-0.190013568213479	-2.17048129801985	-0.531342091043549	1.32450799571912	0.686376040017226	-0.181754062482406
9	0.888888888888889	2.03424368429104	-0.156752877558462	-0.124296700295014	-0.784172217579918	0.274358379243621	-1.46813152920815
10	1	0.0587181900581542	-1.16542273204336	0.328989234706038	-0.571224758964416	-0.637000216125589	0.667372934257008
